{"title":"Doc Martin S07E08 x264 RB58.mp4","uid":12676859,"size":528419917,"categoryP":"video","categoryS":"tv_shows","magnet":"?xt=urn:btih:a02f3bfaf784b8a746f104056ae683876f3991ad&amp;dn=Doc+Martin+S07E08+x264+RB58.mp4&amp;tr=udp%3A%2F%2Ftracker.leechers-paradise.org%3A6969&amp;tr=udp%3A%2F%2Fzer0day.ch%3A1337&amp;tr=udp%3A%2F%2Fopen.demonii.com%3A1337&amp;tr=udp%3A%2F%2Ftracker.coppersurfer.tk%3A6969&amp;tr=udp%3A%2F%2Fexodus.desync.com%3A6969","seeders":1,"leechers":0,"uploader":"RedBaron58","files":1,"time":1446513408,"description":"Doc Martin S07E08 - The Doctor is Out x264 mp4\r\n \nhttp://www.imdb.com/title/tt0408381/\r\n\r\nTrailer:\r\n\r\n\r\nPlease be patient My intial upload speed is limited.\r\nThank you for your kind comments and feedback on my other torrents, your feedback is welcome.\r\n\r\n\r\nAbout the Episode:\r\nLouisa worries Dr Timoney's suggestion that she and Martin aren't meant to be together might have \r\nprompted him to leave Portwenn for good. Calling on Ruth, Morwenna and Janice for help, she tries \r\nto track the down the missing GP, with no luck. \r\nHowever, what Dr Ellingham's friends and family fail to realise is that he is actually trapped up \r\nat the Winton farm, where desperate wife Annie is trying to coerce him into performing a life-saving \r\noperation on her terminally ill husband Jim. \r\nMeanwhile, Ruth and Bert seek out Al to offer him a proposition regarding the whisky and the B&amp;B.\r\n \r\nComedy drama, starring Martin Clunes and Caroline Catz\r\n\r\n\r\nI hope you enjoy.\r\n\r\n\r\nTechnical:\r\n\r\nGeneral\r\nComplete name                            : H:Doc Martin S07E08 x264 RB58.mp4\r\nFormat                                   : MPEG-4\r\nFormat profile                           : Base Media\r\nCodec ID                                 : isom\r\nFile size                                : 504 MiB\r\nDuration                                 : 46mn 12s\r\nOverall bit rate                         : 1 525 Kbps\r\nWriting application                      : Lavf54.63.104\r\n\r\nVideo\r\nID                                       : 1\r\nFormat                                   : AVC\r\nFormat/Info                              : Advanced Video Codec\r\nFormat profile                           :   \r\nFormat settings, CABAC                   : Yes\r\nFormat settings, ReFrames                : 4 frames\r\nCodec ID                                 : avc1\r\nCodec ID/Info                            : Advanced Video Coding\r\nDuration                                 : 46mn 12s\r\nBit rate                                 : 1 400 Kbps\r\nWidth                                    : 832 pixels\r\nHeight                                   : 468 pixels\r\nDisplay aspect ratio                     : 16:9\r\nFrame rate mode                          : Constant\r\nFrame rate                               : 25.000 fps\r\nColor space                              : YUV\r\nChroma subsampling                       : 4:2:0\r\nBit depth                                : 8 bits\r\nScan type                                : Progressive\r\nBits/(Pixel*Frame)                       : 0.144\r\nStream size                              : 463 MiB (92%)\r\nWriting library                          : x264 core 123 r2189 35cf912\r\nEncoding settings                        : cabac=1 / ref=3 / deblock=1:0:0\r\n\r\nAudio\r\nID                                       : 2\r\nFormat                                   : AAC\r\nFormat/Info                              : Advanced Audio Codec\r\nFormat profile                           : LC\r\nCodec ID                                 : 40\r\nDuration                                 : 46mn 12s\r\nBit rate mode                            : Constant\r\nBit rate                                 : 116 Kbps\r\nChannel(s)                               : 2 channels\r\nChannel positions                        : Front: L R\r\nSampling rate                            : 48.0 KHz\r\nCompression mode                         : Lossy\r\nStream size                              : 38.4 MiB (8%)","torrent":{"xt":"urn:btih:a02f3bfaf784b8a746f104056ae683876f3991ad","amp;dn":"Doc+Martin+S07E08+x264+RB58.mp4","amp;tr":["udp%3A%2F%2Ftracker.leechers-paradise.org%3A6969","udp%3A%2F%2Fzer0day.ch%3A1337","udp%3A%2F%2Fopen.demonii.com%3A1337","udp%3A%2F%2Ftracker.coppersurfer.tk%3A6969","udp%3A%2F%2Fexodus.desync.com%3A6969"],"infoHash":"a02f3bfaf784b8a746f104056ae683876f3991ad","infoHashBuffer":{"type":"Buffer","data":[160,47,59,250,247,132,184,167,70,241,4,5,106,230,131,135,111,57,145,173]},"announce":[],"urlList":[]}}